#!OML:ASF C:\ViconDB\ViconDB\414\Spring2016\041811\Spring2016.ASF
:FULLY-SPECIFIED
:DEGREES
232
root 8.93629 17.8589 -19.6845 -180.147 -3.44354 -181.94
lowerback 3.11315 -1.94323 -4.98026
upperback 1.12006 -2.7682 0.559462
thorax -0.328751 -1.41251 3.45262
lowerneck -7.9958 -4.58666 -10.0977
upperneck 18.8782 -6.69901 15.7582
head 7.99413 -2.09278 6.44953
rclavicle -1.09207e-014 6.16232e-015
rhumerus -55.0306 -14.1925 -81.9671
rradius 43.7168
rwrist 28.6623
rhand -31.4145 -12.9663
rfingers 7.12502
rthumb -4.68337 -42.8946
lclavicle -1.09207e-014 6.16232e-015
lhumerus -30.2093 -16.1445 88.4188
lradius 43.8301
lwrist -22.7634
lhand -30.8514 14.9145
lfingers 7.12502
lthumb -4.1396 44.854
rfemur -31.5477 -15.2129 22.678
rtibia 28.8527
rfoot -163.019 5.20346
rtoes -9.95336
lfemur 15.049 -5.19049 -22.0761
ltibia 13.622
lfoot -19.2496 -2.79391
ltoes -18.7135
233
root 8.95791 17.8255 -19.899 -180.189 -4.09628 -181.989
lowerback 3.22362 -2.15899 -4.86858
upperback 1.03428 -3.05703 0.618587
thorax -0.453674 -1.5507 3.46519
lowerneck -7.97854 -4.57916 -10.3371
upperneck 19.0852 -6.66172 15.7602
head 8.06183 -2.08349 6.50596
rclavicle 9.56651e-015 4.37326e-015
rhumerus -55.2044 -13.7479 -82.1348
rradius 43.9214
rwrist 28.4328
rhand -31.804 -13.2497
rfingers 7.12502
rthumb -5.05952 -43.1693
lclavicle 9.56651e-015 4.37326e-015
lhumerus -30.4741 -15.4039 88.4638
lradius 43.7392
lwrist -22.9754
lhand -30.9033 15.0545
lfingers 7.12502
lthumb -4.18979 44.993
rfemur -31.4474 -15.7677 22.6699
rtibia 29.8804
rfoot -163.325 4.97671
rtoes -9.81143
lfemur 15.0745 -5.08748 -21.7418
ltibia 14.7891
lfoot -18.9086 -3.77196
ltoes -19.3265
234
root 8.97694 17.7871 -20.1345 -180.212 -4.4194 -182.141
lowerback 3.00288 -2.23495 -4.69966
upperback 1.02921 -3.14092 0.544044
thorax -0.340873 -1.59428 3.28565
lowerneck -8.02841 -4.61694 -10.39
upperneck 19.3133 -6.69956 15.7043
head 8.15246 -2.09587 6.50122
rclavicle 2.93207e-014 3.97569e-016
rhumerus -55.2591 -13.4669 -82.2921
rradius 44.0257
rwrist 28.122
rhand -32.0253 -13.1541
rfingers 7.12502
rthumb -5.27315 -43.0685
lclavicle 2.93207e-014 3.97569e-016
lhumerus -30.6633 -14.6655 88.454
lradius 43.4046
lwrist -23.3573
lhand -31.091 15.0216
lfingers 7.12502
lthumb -4.37102 44.9565
rfemur -31.2712 -15.9897 22.4713
rtibia 31.0674
rfoot -163.394 4.90195
rtoes -10.7023
lfemur 15.3405 -4.86983 -21.6094
ltibia 15.6656
lfoot -18.4147 -4.43409
ltoes -20.0554
235
root 9.00324 17.778 -20.3755 -180.27 -4.70554 -182.187
lowerback 2.87311 -2.32164 -4.55634
upperback 0.945271 -3.244 0.54133
thorax -0.353425 -1.64208 3.20115
lowerneck -8.04352 -4.58661 -10.3342
upperneck 19.6366 -6.6314 15.4801
head 8.24284 -2.06217 6.43173
rclavicle 3.08116e-015 3.97569e-015
rhumerus -55.5025 -13.1157 -82.4614
rradius 44.2362
rwrist 27.7584
rhand -31.9291 -12.9744
rfingers 7.12502
rthumb -5.18026 -42.8911
lclavicle 3.08116e-015 3.97569e-015
lhumerus -31.0391 -13.6036 88.3843
lradius 43.1355
lwrist -23.9939
lhand -30.8579 15.2339
lfingers 7.12502
lthumb -4.14592 45.1733
rfemur -30.9645 -15.6263 22.1772
rtibia 32.2941
rfoot -163.196 4.24412
rtoes -12.0053
lfemur 15.7251 -4.65816 -21.277
ltibia 16.3441
lfoot -17.4671 -5.17156
ltoes -20.4219
236
root 9.03879 17.7894 -20.6193 -180.433 -5.00858 -182.109
lowerback 2.86138 -2.39422 -4.37014
upperback 0.886183 -3.3334 0.593423
thorax -0.407302 -1.68325 3.15379
lowerneck -8.03056 -4.60191 -10.4515
upperneck 19.9053 -6.62351 15.3885
head 8.32985 -2.06168 6.43276
rclavicle 1.1691e-014 -3.57812e-015
rhumerus -55.6342 -12.743 -82.5621
rradius 44.33
rwrist 27.6781
rhand -32.4105 -13.5138
rfingers 7.12502
rthumb -5.64504 -43.4186
lclavicle 1.1691e-014 -3.57812e-015
lhumerus -31.4626 -12.8057 88.4503
lradius 42.7555
lwrist -24.1791
lhand -30.8898 15.2619
lfingers 7.12502
lthumb -4.17673 45.2007
rfemur -30.6649 -15.2369 22.0297
rtibia 33.5447
rfoot -162.408 3.13907
rtoes -13.7072
lfemur 16.103 -4.47553 -20.7521
ltibia 17.0807
lfoot -16.2066 -5.97049
ltoes -21.1522
237
root 9.07546 17.81 -20.8611 -180.643 -5.23311 -181.958
lowerback 3.06884 -2.45261 -4.14801
upperback 0.742986 -3.41268 0.680889
thorax -0.671444 -1.71287 3.13652
lowerneck -7.80787 -4.58039 -10.5676
upperneck 19.9861 -6.56849 15.3165
head 8.30808 -2.05195 6.43875
rclavicle -1.77788e-014 -1.47101e-014
rhumerus -55.8647 -12.5307 -82.5292
rradius 44.4092
rwrist 27.6119
rhand -32.3754 -13.4622
rfingers 7.12502
rthumb -5.61119 -43.3679
lclavicle -1.77788e-014 -1.47101e-014
lhumerus -32.0153 -11.8693 88.5397
lradius 42.2451
lwrist -24.4135
lhand -30.9954 15.4775
lfingers 7.12502
lthumb -4.27871 45.4143
rfemur -30.2869 -14.1497 21.8147
rtibia 34.7169
rfoot -162.206 2.24202
rtoes -15.7649
lfemur 16.3308 -4.51329 -20.2247
ltibia 18.1671
lfoot -14.8819 -6.5702
ltoes -21.6186
238
root 9.10617 17.8274 -21.1008 -180.795 -5.22202 -181.843
lowerback 3.02133 -2.38562 -3.82014
upperback 0.740416 -3.31055 0.692764
thorax -0.674162 -1.66164 2.96072
lowerneck -7.81361 -4.59007 -10.6236
upperneck 20.0808 -6.56753 15.29
head 8.34186 -2.05198 6.44375
rclavicle -2.60719e-014 1.13307e-014
rhumerus -56.1024 -12.9345 -82.1828
rradius 45.0994
rwrist 28.1563
rhand -32.1275 -13.4916
rfingers 7.12502
rthumb -5.37188 -43.4035
lclavicle -2.60719e-014 1.13307e-014
lhumerus -32.3705 -10.9627 88.5914
lradius 41.6921
lwrist -24.8681
lhand -31.1816 15.6069
lfingers 7.12502
lthumb -4.45853 45.54
rfemur -29.9002 -13.2399 21.7018
rtibia 35.7457
rfoot -162.609 1.60123
rtoes -16.1251
lfemur 16.0393 -4.15875 -19.6856
ltibia 19.983
lfoot -13.3897 -7.24286
ltoes -22.4279
239
root 9.13388 17.8298 -21.3396 -180.987 -5.08249 -181.414
lowerback 2.82114 -2.26598 -3.08835
upperback 0.838028 -3.12216 0.748172
thorax -0.513196 -1.57273 2.59163
lowerneck -7.90772 -4.62549 -10.4202
upperneck 20.1604 -6.60115 15.031
head 8.37572 -2.07085 6.31249
rclavicle -3.67068e-014 3.37934e-015
rhumerus -55.9024 -13.0141 -82.1728
rradius 45.028
rwrist 28.3361
rhand -32.2355 -13.6327
rfingers 7.12502
rthumb -5.47613 -43.5419
lclavicle -3.67068e-014 3.37934e-015
lhumerus -32.6032 -10.1038 88.5305
lradius 40.9297
lwrist -25.4812
lhand -31.283 15.2922
lfingers 7.12502
lthumb -4.55642 45.2231
rfemur -29.4175 -13.0256 22.1257
rtibia 36.6031
rfoot -162.477 1.05688
rtoes -16.8021
lfemur 15.4039 -3.71754 -18.767
ltibia 22.5564
lfoot -11.8165 -7.98567
ltoes -23.0479
